<?xml version="1.0" standalone="no"?><!DOCTYPE svg PUBLIC "-//W3C//DTD SVG 1.1//EN" "http://www.w3.org/Graphics/SVG/1.1/DTD/svg11.dtd"><svg t="1712918137641" class="icon" viewBox="0 0 1124 1024" version="1.1" xmlns="http://www.w3.org/2000/svg" p-id="4655" xmlns:xlink="http://www.w3.org/1999/xlink" width="281" height="256"><path d="M1074.548442 910.035803c-25.231334-28.890841-60.927573-77.555857-57.563395-116.577753 124.834113-160.645915 143.29857-413.665478 44.273609-594.175451a30.816897 30.816897 0 0 0-35.619197-14.638026C889.557179 223.794873 774.956844 326.286735 711.384154 451.981153c-12.737651 25.821991-25.411099 52.863818-56.035391 58.526423-36.248375 6.689835-99.872426 57.563395-124.551624 94.415268l0.089882 0.218286c-10.811595 10.439224-2.568075 30.547249 12.737651 30.007953 3.09453-0.256807 100.154915-9.078144 103.339327-9.347792 31.895488 272.729537-371.47201 305.254203-383.15675 30.341803-2.105821-108.719444 81.08696-127.119699 51.87511-169.968026-27.683846-38.957694-75.450036 12.288238-103.198083 25.398259-69.928675 52.645532-108.822167 0.077042-109.823716-78.68581-5.983614-48.074359 3.659506-87.532827-21.032532-125.257845C66.437865 286.558619 33.412424 289.486224 23.140125 313.40784c-152.697724 508.055065 485.057956 930.323593 893.998177 584.635054 39.689595 19.851218 96.842098 41.423045 141.346833 41.191919 15.896383 3.133051 26.964785-17.565631 16.037627-29.160489zM994.013619 510.790064c-58.988677 11.466454-76.438744-76.682712-18.156289-88.893906 58.821752-11.286688 76.207618 76.515787 18.156289 88.893906z" p-id="4656" fill="#1296db"></path><path d="M122.177928 234.644988c68.901445 70.622055-8.140797 236.41696 59.848981 234.234097a26.707977 26.707977 0 0 0 21.404903-14.715068c38.431238-46.661918 77.504495-68.439192 141.411035-77.209167 27.195911-3.10737 50.077457 33.616098 98.049094 19.709973 59.669216-17.295983 46.135463-88.598578 16.461359-104.546322-40.177529-30.662812-128.930192-28.685395-165.640821 0 87.725433-80.637547 251.594282-96.533929 286.122047 43.99112 20.300631 73.934872 95.391136 78.326279 120.699512 5.277394 30.675653-161.17237-168.02913-289.319299-313.073991-237.546913 35.426591-17.976523 76.015012-23.112673 111.133435-40.88375 22.984269-14.689387 27.632484-47.393819 0.166924-61.235742C381.386551-15.524012 257.130255 104.13543 217.132491 207.590321c-17.000655-42.732764-72.792078-92.617615-122.407282-87.584189-25.963236 5.521361-35.73476 37.391168-17.783918 56.754452 17.154739 20.737203 30.162038 35.888844 45.236637 57.884404zM587.88544 61.890601a3.351338 3.351338 0 0 0 0.616338-0.064202c86.621161-9.96413 97.959211 51.040485 150.938592 42.668562 49.551002-9.720163 45.737411-75.321632-1.284037-86.454236-47.663467-14.843472-114.651696 2.259906-153.044414 37.968985a3.608145 3.608145 0 0 0 2.773521 5.880891z" p-id="4657" fill="#1296db"></path></svg>