<svg xmlns="http://www.w3.org/2000/svg" width="900" height="350" style="width:100%;height:100%;content-visibility:visible" viewBox="0 0 900 350"><defs><clipPath id="a"><path d="M0 0h900v350H0z"/></clipPath></defs><g clip-path="url(#a)"><g display="block"><path fill="#2B2B2B" d="m285.473 244.095 28.249-3.659 12.418-4.237 17.526 5.825 48.066-10.756-65.592-15.802-40.667 28.629z" opacity=".1"/><path fill="#C4C4C4" d="M109.175 64.272V182.78h6.386l-.709-121.346-5.677 2.838zM97.466 64.272V182.78h6.386l-.709-121.346-5.677 2.838z"/><path fill="#DDDDDC" d="m338.293 175.75-52.82 26.544-242.811-8.913L83.355 165.7l256.059 1.67-1.121 8.38z"/><path fill="#858585" d="m285.474 244.095-242.812-5.433v-45.281l242.812 5.72 3.193 19.468-3.193 25.526z"/><path fill="#C4C4C4" d="M218.074 78.076v98.606l45.873 2.144 3.493-48.271-.644-52.479h-48.722z"/><path fill="#858585" d="m263.946 178.825 14.813-5.147 2.129-46.84-2.129-50.597-11.964 1.835-2.849 100.749z"/><path fill="#A2A2A2" d="m278.76 173.677 41.526 2.073V80.86l-41.526-4.62v97.437z"/><path fill="#737373" d="M308.932 137.364c-1.064.355-30.173-1.774-30.173-1.774l-3.179 1.814 3.179 4.396 31.237 1.596-1.064-6.032zM306.272 146.944l-27.512-.887-2.292 2.306 2.292 3.193 28.931 1.489-1.419-6.101z"/><path fill="#6E7073" d="M285.473 199.101v44.995l43.861-17.053 8.959-51.293-52.82 23.351z"/><path fill="#9DA0A1" d="m127.891 106.627 71.307 2.707.261 46.569-72.632-1.793 1.064-47.483z"/><path fill="#FFF" d="m133.744 113.351 57.635 3.674-1.064 32.526-54.974-3.495-1.597-32.705z"/><path fill="none" stroke="#A2A2A2" stroke-miterlimit="10" d="m169.404 135.612-5.256 2.794M164.103 139.493a1.93 1.93 0 1 1-3.859 0 1.93 1.93 0 0 1 3.859 0zM177.763 135.965l1.058 5.857M179.876 141.906a1.93 1.93 0 1 1-1.179 3.676 1.93 1.93 0 0 1 1.179-3.676zM178.244 130.641l3.872-4.52M181.514 125.25a1.929 1.929 0 1 1 3.591-1.408 1.929 1.929 0 0 1-3.591 1.408z"/><path fill="#D1A0B8" d="m179.915 128.723 2.328 10.77-4.058-1.42-5.646-7.686 7.376-1.664z"/><path fill="#90759F" d="m168.339 131.451 5.322-5.456 6.254 2.728-8.516 4.428 2.728 4.924-5.788-1.73v-4.894z"/><path fill="#A687B9" d="m168.339 131.451 3.06 1.7 2.728 4.923h4.058l-3.517-6.623-4.343-2.035-1.986 2.035z"/><path fill="#90759F" d="m236.196 115.986 23.949 1.065-.798 27.675-22.885-.533-.266-28.207z"/><path fill="#EBEBEB" d="m240.454 122.639 14.37-.265v17.296l-14.37-.531v-16.5z"/><path fill="#B3879D" d="m224.621 113.857 3.858.133-.399 10.911h-3.326l-.133-11.044zM224.887 130.888l3.193-.266.133 10.511-3.326-.266v-9.979zM225.02 148.186l3.193-.266.266 11.576-3.592-.133.133-11.177z"/><path fill="none" stroke="#858585" stroke-miterlimit="10" d="m237.083 150.669 15.08.354M237.083 153.863l15.08.354M237.083 157.056l15.08.354M237.083 160.249l15.08.356M237.083 163.442l15.08.356"/><path fill="#B3879D" d="m203.598 109.466 4.258.133.266 5.057-4.391-.133-.133-5.057zM203.865 117.982h4.257l.133 4.524h-4.39v-4.524zM203.997 126.897l4.391-.133.133 4.79-4.391-.266-.133-4.391zM204.264 135.412h4.125v4.658l-4.258-.267.133-4.391z"/><path fill="#6E7073" d="m272.52 207.927 2.661-.133-.532 29.271-2.794.4.665-29.538zM267.464 207.793l-.532 29.271h-2.661l.665-29.536 2.528.265zM259.88 207.661l-.532 29.139h-2.661l.665-29.671 2.528.532z"/><path fill="#C4C4C4" d="m172.597 203.27 61.471 1.332-1.064 30.601-58.811-1.596-1.596-30.337z"/><path fill="#9DA0A1" d="m227.415 208.592 2.129-1.73 1.729 1.996-2.661 2.262-1.197-2.528zM227.149 231.078l2.261-1.996 2.129 2.528-2.662 1.464-1.728-1.996z"/><path fill="#D1A0B8" d="m238.058 204.867 8.383.133v3.459l-8.649-.266.266-3.326zM237.793 211.253l8.117.133.133 3.46-8.25-.266v-3.327zM237.927 217.639l7.85.133v3.194l-7.984-.266.134-3.061z"/><g opacity=".1"><path fill="#2B2B2B" d="m133.73 185.073-1.626.866 5.831 1.568 10.179-1.217-4.264-.76-10.12-.457zM153.708 176.463l-3.065.675 9.326 3.476 7.19-1.004 2.244-1.625-2.244-.915-13.451-.607zM169.404 182.932l-3.173.679 7.03 3.366 13.528-1.206-3.862-2.228-13.523-.611zM186.789 179.005l-2.75.14 6.254 8.65 25.812-2.722 1.969-2.835-31.285-3.233zM257.86 190.134l-1.972 1.4 13.305 3.752 4.325-3.752 21.488-4.027-12.042-3.928-25.104 6.555z" opacity="1"/></g><path fill="#9DA0A1" d="m290.486 184.974-.445 2.821-7.93-1.196-12.043 3.759-.612 2.952-10.183-1.387.193-2.164-1.606.376.319-2.342 4.486-2.36 7.889-.18 12.004-3.607.336-2.462 5.332-.617-.511 4.01 2.771 2.397z"/><path fill="#A2A2A2" d="m258.18 187.793 3.238-5.311 5.137 1.763 14.243-3.34.555-2.919 6.873.581-4.457 1.425 2.439 1.329 4.099-.873.18 4.527-7.523-1.395-13.929 4.03 1.034 2.748-10.602-.599 6.162-1.704-2.532-1.897-4.917 1.635z"/><path fill="#858585" d="m282.964 183.58-.854 3.02 7.931 1.195.445-2.82-7.522-1.395zM270.069 190.357l-.613 2.952-10.182-1.387.193-2.164 10.602.599zM263.097 186.157l-.368 2.7 2.9-.802-2.532-1.898z"/><path fill="#C4C4C4" d="m187.388 171.463 16.032-1.506 10.858 7.185-19.24 3.991-7.65-9.67z"/><path fill="#737373" d="m214.279 177.142-19.241 1.864-2.295 2.918 1.896 4.09 19.64-3.815v-5.057z"/><path fill="#A2A2A2" d="m187.389 171.463-.599 7.542 7.85 7.008.399-7.008-7.65-7.542z"/><path fill="#858585" d="m201.359 176.344 6.253-.621-3.792-2.505-5.388.465 2.927 2.661z"/><path fill="#CECECD" d="m166.232 172.695-5.886-2.194-6.638 2.194 5.464 4.442 5.222-.674 1.838-3.768z"/><path fill="#8F8F8F" d="m163.166 172.695-3.196-.535-1.762 1.49 3.155 1.62 1.803-2.575z"/><path fill="#8F8F8F" d="M153.709 172.695v3.768l5.463 2.53 2.382-.674 2.728.674 2.877-1.923-.927-4.375-1.838 3.092-5.222.676-5.463-3.768z"/><path fill="#737373" d="M159.173 176.463v2.531h5.109l.113-3.206-5.222.675z"/><path fill="#CECECD" d="m182.673 179.145-6.597-2.206-6.673 2.206 3.459 4.466 7.285-.678 2.526-3.788z"/><path fill="#8F8F8F" d="m178.912 179.145-3.213-.538-2.837 2.007h4.797l1.253-1.469z"/><path fill="#8F8F8F" d="M169.404 179.145v3.788l3.458 2.544 4.429-.678 2.742.678 2.894-1.934-.254-4.398-2.526 3.109-7.285.679-3.458-3.788z"/><path fill="#737373" d="M172.862 182.932v2.544h7.172l.113-3.222-7.285.678z"/><path fill="#CECECD" d="m144.51 182.238-5.787-1.651-4.315 1.651 3.433 3.342 3.929-.508 2.74-2.834z"/><path fill="#8F8F8F" d="m140.846 182.238-2.405-.402-1.325 1.121 2.793.381.937-1.1z"/><path fill="#8F8F8F" d="m134.409 182.238-.679 2.835 4.112 1.905 1.792-.509 2.051.509 2.165-1.447.66-3.293-2.74 2.328-3.928.507-3.433-2.835z"/><path fill="#737373" d="M137.842 185.073v1.904h3.844l.084-2.412-3.928.508z"/><g opacity=".1"><path fill="#2B2B2B" d="m803.704 275.382-4.247 1.866 12.847 6.963 23.521-5.233-6.411-2.435-25.71-1.161zM854.63 312.64l-4.968 2.483 17.031 6.387 13.128-7.407-3.977-.505-21.214-.958zM184.713 332.891l-2.093 3.033 11.709 3.46 15.079-5.278-3.481-2.173h-12.736l-8.478.958zM136.939 316.01l-9.669 7.196 15.789 13.738 39.562-10.223 6.453-10.711-29.34-5.411-22.795 5.411zM215.544 304.39l54.524-34.062 37.632 5.145-8.177 17.519-47.36 25.147-36.619-13.749zM299.707 319.826l-.185 9.296 53.806 14.654 59.222-25.014-67.676-14.903-45.167 15.967zM565.461 331.268l-5.5 13.304H505.32l11.709-7.183 48.432-6.121z" opacity="1"/></g><path fill="#DDDDDC" d="m577.92 297.738 11.135 28.473 69.011-21.687-17.032-19.027-63.114 12.241z"/><path fill="#EBEBEB" d="m585.684 299.069 24.127 28.739 65.195-23.284-24.392-18.472-7.451-5.079-57.479 18.096z"/><path fill="none" stroke="#A2A2A2" stroke-miterlimit="10" d="m640.857 287.449 19.338 15.434M635.536 289.578l19.336 15.434M629.682 291.174l19.336 15.434"/><path fill="none" stroke="#9DA0A1" stroke-miterlimit="10" stroke-width="3" d="m353.328 263.765 13.704-8.515 6.918 10.778-5.07 10.776M303.703 319.793l-13.576-.479-3.725 7.784-19.159-6.298"/><path fill="#734D5F" d="m316.739 308.205 31.667-12.241 31.134 10.645-29.805 20.491-32.996-18.895z"/><path fill="#95627B" d="m379.54 306.609-30.604 8.515-32.198-6.918 1.331 12.773 30.601 7.185 29.805-9.314 1.065-12.241z"/><path fill="#858585" d="m352.396 315.39 23.684-30.07-6.653-3.725-20.49 28.739-26.079-23.151-4.79 5.322 27.41 23.151 6.918-.266z"/><path fill="#A687B9" d="m338.559 265.627 10.91-6.121 9.58 6.121-11.443 6.919-9.047-6.919z"/><path fill="#90759F" d="m338.559 265.628-.267 14.104 10.112 5.588.636-7.442-1.434-6.396-9.047-5.854z"/><path fill="#785D87" d="m347.607 271.482 11.442-5.854-.532 13.305-10.113 6.387-.797-13.838z"/><path fill="#A2A2A2" d="m352.396 315.39-2.536-45.061h-3.673l-1.774 45.327 7.983-.266zM316.738 308.205l-11.177 3.326 8.161-27.896 4.347 8.87-1.331 15.7zM379.54 306.608l-3.46-21.288 4.701-7.452 8.339 32.378-9.58-3.638z"/><path fill="#9DA0A1" d="m313.723 283.634 24.836-18.006-.266 14.103-20.224 12.773-4.346-8.87zM358.517 278.933l17.563 6.387 4.701-7.451-21.732-12.241-.532 13.305z"/><path fill="#90759F" d="m316.739 308.206-11.177 3.325-4.791 8.295 4.791 5.942 12.507-4.789 2.217-7.008-3.547-5.765zM379.539 306.609l-4.524 7.185 3.46 5.056 11.575 2.528 4.569-3.992-2.839-8.027-12.241-2.75z"/><path fill="#785D87" d="m320.287 313.971-12.587 3.581-6.929 2.273 4.791 7.274 12.507-6.121 2.218-7.007zM375.015 313.794l12.788 2.222 5.928 1.369-3.193 6.343-12.064-4.878-3.459-5.056z"/><path fill="#90759F" d="m348.139 310.246-7.433 3.11-1.291 12.635 9.625 9.624 6.417-11.177-.665-10.444-6.653-3.748z"/><path fill="#785D87" d="m348.139 310.245.266 10.787.325 13.167 8.989-8.864-1.586-12.213-7.994-2.877z"/><path fill="#D1A0B8" d="m305.561 311.531 2.138 6.02-2.138 9.547-5.854-7.273 5.854-8.294zM339.414 325.989l8.99-4.958 9.314 4.305-8.914 11.875-9.39-11.222zM390.538 323.728l-2.735-7.712 3.977-6.658 3.903 8.028-5.145 6.342z"/><path fill="#A2A2A2" d="m301.911 254.407-28.386-6.564-25.532 14.636-32.45 12.995 47.338 15.301 30.868-17.563 8.162-18.805z"/><path fill="#C4C4C4" d="m247.994 262.479 44.691 9.668-29.803 25.015-55.853-21.687 40.965-12.996z"/><path fill="#8F8F8F" d="m301.911 254.407-9.225 17.741-29.805 22.885-2.128 5.765 2.128 5.855 34.417-27.143 9.579-13.749-4.966-11.354z"/><path fill="#737373" d="m207.029 275.473 4.759 13.927 51.093 17.253v-11.62l-55.852-19.56z"/><path fill="#95627B" d="m256.48 284.743-13.645-2.838 7.888 8.87 5.757-6.032zM220.836 275.474l12.596 2.528-5.234 4.886-7.362-7.414z"/><path fill="#FFF" d="m220.836 275.474-4.435 3.282 6.032 10.644 5.765-6.512-7.362-7.414zM242.835 281.905l-4.42 4.56 5.662 10.697 6.646-6.387-7.888-8.87z"/><path fill="#8F8F8F" d="M182.62 310.601v6.829l-9.402.71v7.983l-10.467 4.702-4.258-7.009-4.435-1.082-4.613 1.616-7.096 6.475-8.338-6.475-3.193-9.706h4.613l-1.597-12.116 28.03 1.331 6.741-7.008.598 9.392 13.417 4.358z"/><path fill="#737373" d="m150.51 316.82-1.065 7.528 9.047-.532.179-6.996h-8.161zM143.059 321.776l-.71 9.048-10.289-6.653-1.242-9.527 12.241 7.132zM172.154 310.6l1.064 7.54-5.499-5.212 4.435-2.328z"/><path fill="#A2A2A2" d="m162.574 322.735.177 8.089 10.467-4.7v-7.984l-10.644 4.595z"/><path fill="#CECECD" d="m144.123 296.852 6.564 4.967 5.499-1.552 1.597-3.415h10.822l-3.193 4.967 5.144 2.04 9.048-.798 3.016 7.54h-10.467l-4.435 2.327 5.499 5.213-10.644 4.593-3.903-5.914h-8.161l-7.45 4.957-12.242-7.132 8.339-1.717 3.37-5.964-8.693-4.435 10.29-5.677z"/><path fill="#737373" d="m145.188 310.6 8.869-6.742 6.741 3.726-7.804 5.344-7.806-2.328z"/><path fill="#8F8F8F" d="m154.057 303.858-1.064 9.07 10.999-5.344-9.935-3.726z"/><path fill="#CECECD" d="m186.176 325.992 9.284-3.461 10.467 3.461-8.619 7.006-8.235-1.065-2.897-5.941z"/><path fill="#8F8F8F" d="m191.01 325.992 5.041-.844 2.78 2.35-5.855.798-1.966-2.304z"/><path fill="#8F8F8F" d="M205.927 325.991v5.942l-8.619 3.991-3.756-1.064-4.301 1.064-4.538-3.033 1.463-6.9 2.897 4.877 8.235 1.065 8.619-5.942z"/><path fill="#737373" d="M197.308 331.933v3.991h-8.058l-.177-5.054 8.235 1.063z"/><path fill="#CECECD" d="m827.641 268.182-11.251-4.194-12.687 4.194 10.447 8.49 9.98-1.29 3.511-7.2z"/><path fill="#8F8F8F" d="m821.783 268.182-6.11-1.024-3.37 2.849 6.032 3.097 3.448-4.922z"/><path fill="#8F8F8F" d="M803.704 268.181v7.201l10.445 4.837 4.552-1.29 5.214 1.29 5.499-3.676-1.773-8.362-3.511 5.911-9.981 1.29-10.445-7.201z"/><path fill="#737373" d="M814.15 275.382v4.837h9.766l.214-6.127-9.98 1.29z"/><path fill="#CECECD" d="m875.445 306.698-10.349-3.461-10.465 3.461 5.423 7.006 11.429-1.065 3.962-5.941z"/><path fill="#8F8F8F" d="m869.546 306.698-5.041-.844-4.449 3.149h7.525l1.965-2.305z"/><path fill="#8F8F8F" d="M854.63 306.699v5.941l5.425 3.992 6.949-1.064 4.302 1.064 4.538-3.034-.399-6.899-3.961 4.877-11.429 1.064-5.425-5.941z"/><path fill="#737373" d="M860.056 312.64v3.992h11.25l.178-5.056-11.428 1.064z"/><path fill="#CECECD" d="m828.945 294.873-9.076-2.591-6.768 2.591 5.385 5.243 6.162-.796 4.297-4.447z"/><path fill="#8F8F8F" d="m823.199 294.873-3.773-.631-2.081 1.758 4.382.598 1.472-1.725z"/><path fill="#8F8F8F" d="m813.1 294.872-1.063 4.447 6.449 2.987 2.809-.797 3.221.797 3.396-2.27 1.033-5.164-4.297 3.65-6.162.797-5.386-4.447z"/><path fill="#737373" d="M818.486 299.319v2.987h6.029l.133-3.784-6.162.797z"/><path fill="#9DA0A1" d="m565.461 320.649 15.168-5.082 1.596 2.541-17.828 7.305 1.064-4.764z"/><path fill="#95627B" d="m578.579 316.254 3.646-6.542 8.25 3.461-3.328 7.477-7.354-1.637-1.214-2.759z"/><path fill="#B3879D" d="m582.225 309.712 4.923 10.937 6.519-8.275-11.442-2.662z"/><path fill="#8F8F8F" d="m517.029 325.945 26.256-10.592 22.176 5.296-19.161 14.876-29.271-9.58z"/><path fill="#6E7073" d="M565.461 320.65v10.618l-18.097 12.506-2.609-4.203 1.546-5.109 19.16-13.812z"/><path fill="#737373" d="m517.029 325.945 29.271 8.516 1.065 9.314-30.336-6.387v-11.443z"/><path fill="#D1A0B8" d="m534.415 323.373 8.427-3.903 9.491 2.572-9.669 4.968-8.249-3.637z"/><path fill="#95627B" d="m552.333 322.042.353 1.863-9.313 4.967-9.579-2.927.62-2.572 8.826 2.572 9.093-3.903z"/><path fill="#2B2B2B" d="m428.326 271.66-36.19 10.112 38.319 22.885 86.574 21.289 47.952-5.411.479 10.733 158.778-8.027 35.924-13.262 38.149 4.125 47.893-15.035-75.131-20.091-70.253-19.47-272.494 12.152zM88.24 253.831l112.771 19.272-118.477 35.901 5.706-55.173z" opacity=".1"/><path fill="#734D5F" d="m165.664 124.894-73.484-3.496 31.891-12.118 41.593 15.614z"/><path fill="#D1A0B8" d="m120.838 102.773-11.664 1.049-37.61 6.576 3.065 11.3 3.373 8.913 25.472-12.629 17.364-15.209z"/><path fill="#737373" d="M109.175 103.822 74.63 121.7l-7.323-12.964 41.868-4.914z"/><path fill="#532F42" d="M109.331 288.038s-10.635 2.064-18.885-4.353c-13.351-10.384-9.494-25.811-9.494-25.811l46.284-10.058-1.364 5.619s16.79 26.394-16.541 34.603z"/><path fill="#734D5F" d="M126.939 253.72c-.281 11.895-.89 29.372-17.607 34.318 0 0 17.31-5.243 33.885-10.831 5.973-2.719 13.687-16.96 11.169-29.391l-27.447 5.904z"/><path fill="#B3879D" d="m202.22 227.141-6.207 14.953-111.895 32.097-1.582-21.064 57.185-14.721 62.499-11.265z"/><path fill="#D1A0B8" d="m81.571 174.747 114.928 34.111-72.824 13.413-44.305-.041 2.201-47.483z"/><path fill="#95627B" d="m160.46 212.332 8.312 6.972-3.364 15.929-82.873 17.893-3.165-30.897 81.09-9.897z"/><path fill="#734D5F" d="m162.336 221.01-81.731 13.278.896 8.736 82.39-14.819-1.555-7.195z"/><path fill="#D1A0B8" d="m105.489 230.245 1.335 8.224 22.863-4.112-1.666-7.772-22.532 3.66z"/><path fill="#FFF" d="m160.46 212.332 4.949 22.902 36.811-8.092-5.72-18.284-36.04 3.474z"/><path fill="#95627B" d="m78.001 130.612 42.836-27.838 49.366 5.46-4.539 16.659-44.781-11.301-42.882 47.762v-30.742z"/><path fill="#C4C4C4" d="m343.667 242.024-29.944-1.588-14.016-150.193 8.564-5.138 24.774-4.245 14.03 88.614-3.408 72.55z"/><path fill="#737373" d="m333.045 80.86-33.337 9.382L76.887 55.28l1.419-27.64 254.739 53.22z"/><path fill="#90759F" d="M316.738 122.342 209.675 99.695l-127.86-3.421-.519-50.7 232.426 40.724 3.016 36.044z"/><path fill="#785D87" d="m315.512 107.691-97.943-18.41L82.41 72.377V76.8l134.627 16.126 98.949 20.425-.474-5.66zM314.576 96.501l-115.378-22.03L80.28 56.675l2.129 5.985 117.863 14.992 114.304 23.309v-4.46z"/><path fill="#C4C4C4" d="m899.294 11.983-17.401 232.148-512.244-13.452V57.975l529.645-45.992zM44.954 4.665l-29.095 4.08L0 327.764l40.696 11.619L51.34 162.502 44.954 4.665z"/><path fill="#9DA0A1" d="M369.65 57.976 44.954 4.666l-4.258 334.718 55.351-23.204L80.436 29.768l252.609 51.093 10.621 161.163 25.984-11.345V57.976z"/><path fill="#90759F" d="m342.686 141.759 13.968-.626v26.178l-12.241 3.759-1.727-29.311z"/><path fill="#785D87" d="m347.075 146.057 6.208-1.331v9.492l-6.208 1.064v-9.225z"/><path fill="#2B2B2B" d="m390.944 231.078-3.141-174.679-18.153 1.577v172.703l21.294.399z" opacity=".1"/></g><g display="block"><path fill="#EBEBEB" d="m492.709 210.187 27.424-42.875 163.601 8.198 28.261 43.06-219.286-8.383z"/><path fill="#A687B9" d="m512.223 178.945 80.432-3.008 91.08-.427-11.655-32.113-3.725-38.82-66.002 10.459-80.358-5.68-9.772 69.589z"/><path fill="#90759F" d="m512.223 178.944 73.106-16.44 98.406 13.005-25.669 7.879-84.755 3.916-60.629-.668-.459-7.692z"/></g><g display="block"><path fill="#EBEBEB" d="m434.231 34.518 13.596-11.402 11.9 11.402-14.359 11.056-11.137-11.056zM470.158 8.745l101.689 6.388 20.807 71.408-115.666 22.324-15.376-58.906 8.546-41.214z"/><path fill="#90759F" d="m495.289 29.768 12.676 9.047-12.676 12.081-10.16-10.564 10.16-10.564zM531.31 38.549l11.797-8.781 10.023 11.628-13.039 9.5-8.781-12.347zM509.258 70.161l11.407-7.47 10.645 9.389-12.241 10.643-9.811-12.562zM549.227 61.434l8.16-6.154 6.032 8.017-9.713 5.851-4.479-7.714z"/><path fill="none" stroke="#B3879D" stroke-miterlimit="10" stroke-width="3" d="m496.547 40.331 23.692 17.112 21.626-16.242 14.458 21.014M520.239 57.443v16.233"/></g><g display="block"><path fill="#C3977A" d="m404.908 280.974-3.768-7.984 13.082 3.993-9.314 3.991z"/><path fill="#DFBCA4" d="m426.594 262.878-21.687 18.095 27.942 2.129 2.424-16.498-8.679-3.726z"/><path fill="#8A6651" d="m424.878 264.31 7.972 18.793 4.736-13.306-7.839-6.92-4.869 1.433z"/><path fill="#785D87" d="m442.775 211.519-18.529 2.307 7.096 16.321 9.756 10.288 8.108-8.433-1.544-10.193-4.887-10.29z"/><path fill="#584164" d="m424.245 213.826-7.806 43.642 22.531 18.272 2.129-35.304-16.854-26.61z"/></g><g display="block"><path fill="#C3977A" d="m423.443 299.07-7.004-7.984 14.92 3.991-7.916 3.993z"/><path fill="#DFBCA4" d="m439.9 280.974-16.458 18.096h34.156l-2.291-13.572-15.407-4.524z"/><path fill="#8A6651" d="m437.932 283.645 19.666 15.425-2.291-13.572-15.407-4.524-1.968 2.671z"/><path fill="#90759F" d="m444.989 218.57-14.475 5.153 18.693 30.109 6.101-2.395v-21.289l-10.319-11.578z"/><path fill="#785D87" d="m430.514 223.723 2.336 59.379 22.457 2.395 2.291-9.757-2.291-24.304-24.793-27.713z"/></g><path fill="#95627B" d="m466.507 208.859-23.732 2.661 12.532 39.915 25.442-23.416-3.951-11.177-10.291-7.983z" display="block"/><g display="block"><path fill="#734D5F" d="m464.21 151.556-17.185 22.363-1.491 9.468 3.548 9.905 16.262-13.44 4.43-18.134-5.564-10.162z"/><path fill="#532F42" d="m449.083 193.291-39.748-20.049 2.151-8.203 7.799-5.544 27.74 14.423 2.058 19.373z"/></g><g display="block"><path fill="#B3879D" d="m485.408 130.24-18.006 22.736-2.507 15.697 1.612 40.186 14.242 19.159 31.932-6.918-4.523-65.729-22.75-25.131z"/><path fill="#95627B" d="m471.316 178.565 23.868-4.3-1.064 5.854-22.804 3.268v-4.822z"/></g><g display="block"><path fill="#6E7073" d="m492.709 309.979 21.338-14.902-1.365-9.58-17.497.555-6.396 11.686 3.92 12.241zM682.724 312.958 665.5 294.139v-13.166l18.288 4.524 2.662 13.573-3.726 13.888z"/><path fill="#8F8F8F" d="m455.306 285.497 2.276 23.111 35.126 1.371 2.476-23.927-39.878-.555zM683.789 285.497l-1.064 27.462 38.319.213 3.193-28.96-40.448 1.285z"/><path fill="#A687B9" d="m696.029 173.621-229.522 35.237-2.298 17.119-8.904 25.458 78.915 14.636 195.871-21.288 1.064-14.636 6.387-16.233-5.677-7.273-7.559-5.573-28.277-27.447z"/><path fill="#A687B9" d="m466.506 208.859 14.242 19.16-25.442 23.416 11.2-42.576z"/><path fill="#90759F" d="m480.749 228.018-25.442 23.418 20.713-29.78 230.122-17.588 31.401 9.847-1.952 16.233-5.499 14.635-22.886-23.34-159.116 8.705-67.341-2.13zM455.307 251.436v34.062l58.741 9.58 11.141-5.057h9.758l50.382 9.048 7.274-3.991 7.377.421 41.055-10.001 4.789-2.395 4.789 2.949 89.059 5.034-9.58-46.303-195.871 18.095-78.914-11.442z"/><path fill="#785D87" d="m514.048 295.078 20.174-32.2.724 27.144-20.898 5.056zM585.329 299.069l8.516-29.715 6.134 26.145-14.65 3.57zM641.034 285.498l3.581-32.819 5.997 33.374-9.578-.555zM707.206 221.443l25.986 10.492-3.1 12.848-22.886-23.34z"/><path fill="#2B2B2B" d="m548.09 238.47-9.42 5.626 69.188 11.98 36.757-3.396 15.579-28.957v-15.929l-63.769 4.334-48.335 26.342z" opacity=".2"/><path fill="#95627B" d="m544.755 230.147 35.784-54.02 72.976-4.612L630.3 223.76l-85.545 6.387z"/><path fill="#FFF" d="m630.3 221.631 3.688 16.101-1.833 16.099-86.033-9.7-1.368-13.983 85.546-8.517z"/><path fill="#C4C4C4" d="m653.515 171.515 6.679 36.279-28.038 46.037-1.856-32.199 23.215-50.117z"/><path fill="#9DA0A1" d="m643.607 215.466-12.723 16.275-16.549 2.796 16.806 1.663 12.466-20.734zM655.721 183.495l-17.509 31.218 18.21-27.409-.701-3.809z"/><path fill="none" stroke="#734D5F" stroke-miterlimit="10" stroke-width="5" d="M607.815 207.974c.491 2.771-3.312 5.764-8.493 6.683-5.183.92-9.782-.582-10.275-3.353-.491-2.772 3.311-5.764 8.494-6.684 5.182-.919 9.782.583 10.274 3.354z"/><path fill="none" stroke="#734D5F" stroke-miterlimit="10" stroke-width="3" d="M597.564 194.341c.252 1.419-1.695 2.952-4.35 3.423-2.654.471-5.011-.298-5.263-1.718-.251-1.419 1.697-2.952 4.351-3.423 2.655-.47 5.01.299 5.262 1.718zM577.651 211.276c.252 1.419-1.696 2.952-4.351 3.423-2.654.471-5.009-.298-5.261-1.718-.252-1.419 1.695-2.952 4.349-3.423 2.655-.47 5.011.299 5.263 1.718zM626.194 196.339c.251 1.419-1.696 2.952-4.351 3.423-2.654.471-5.01-.298-5.262-1.717-.252-1.42 1.696-2.953 4.35-3.423 2.655-.471 5.011.298 5.263 1.717z"/><path fill="none" stroke="#734D5F" stroke-miterlimit="10" stroke-width="2" d="m593.214 197.763 2.162 6.858M589.048 211.304l-11.396-.028M607.037 206.463l10.954-6.562"/><path fill="none" stroke="#734D5F" stroke-miterlimit="10" d="m603.425 183.047 28.738-2.928M601.828 186.505l18.36-1.33"/></g><g display="block" opacity=".2"><path fill="#2B2B2B" d="m507.095 234.538-3.858-5.721-8.051-5.094 6.924-9.897 2.041-10.746 13.055.989 1.099 21.909-11.21 8.56z" opacity="1"/></g><g display="block"><path fill="#734D5F" d="m502.11 174.686 2.59 36.035 9.349.798 10.875-1.862-6.619-43.266-10.501 3.617-5.694 4.678z"/><path fill="#95627B" d="m474.183 150.314 27.927 24.372 7.905-3.234 8.29-5.062-28.917-32.642-15.205 16.566z"/></g><g display="block"><path fill="#C3977A" d="m504.699 210.721-11.989 9.659 2.475 3.343 9.514-3.877 1.685-4.379-1.685-4.746z"/><path fill="#DFBCA4" d="M504.699 210.721v9.125l9.35 1.431 12.338-3.471-1.463-8.149-20.225 1.064z"/><path fill="#C3977A" d="m504.699 219.847 2.396 14.691 17.403-5.136 1.889-11.596-21.688 2.041z"/></g><g display="block"><path fill="#DFBCA4" d="m411.654 147.56 2.838-.588 38.503-3.304 14.406 5.761.398-5.863 8.946-4.585-4.563-8.656 1.261-6.092-2.003-8.94 4.616-1.222 2.601-14.553-8.687-2.501-7.029 12.36-6.475-1.907 5.093-37.583-13.642-6.06-34.513 10.968-12.263-2.569 4.047 44.66 6.466 30.674z"/><path fill="#C3977A" d="m406.119 94.146 14.653 6.428 8.973 17.516 3.581-21.588 9.447-10.158-14.049 4.067-9.441-.168-5.509-1.628-7.655 5.531z"/><path fill="#734D5F" d="m415.524 83.266-9.406 10.88 13.166-3.902-3.76-6.978zM428.725 90.411l14.048-4.066-9.447 10.158-4.601-6.092z"/><path fill="#E8C9B6" d="m419.284 90.243 4.157 28.834 6.305-.987-1.022-27.679-9.44-.168z"/><path fill="#8A6651" d="m423.442 119.076 3.629 3.804 2.675-4.79-6.304.986zM422.667 129.622l17.232-1.361.148 2.601-16.605 1.359-.775-2.599zM473.201 101.627l-5.799 7.654 6.3-1.991-.501-5.663zM472.413 115.036l-6.312 1.522 7.342 7.676-1.03-9.198z"/><path fill="#C3977A" d="m447.918 63.827-5.144 22.518 9.279 52.831 6.785 1.028 5.371 11.353 13.346-9.756 7.853-11.56-12.995-15.205-6.312 1.522-3.159-7.181-6.475-1.906 5.093-37.582-13.642-6.062z"/><path fill="#464646" d="m391.731 69.769 9.409 2.458 12.349 4.016-1.517-15.37-6.699-13.168-13.542 22.064z"/><path fill="#858585" d="m405.274 47.704 56.336 2.255-6.079 9.344-8.21 5.733-33.832 11.206-8.215-28.538z"/><path fill="#6E7073" d="m447.32 65.035 12.875 5.38 6.764-2.719 4.499-5.035-9.848-12.702-14.29 15.076z"/><path fill="#464646" d="m460.196 70.415-4.89 38.185 7.922 1.82 6.906-12.518 7.884 2.101-1.031 8.862 16.067-16.949-21.596-29.254-11.262 7.753z"/><path fill="#8A6651" d="m466.101 116.558 12.556 5.786-6.245-7.308-6.311 1.522zM414.493 146.972l37.558-7.795 9.804-1.812 2.352 14.192-12.473-6.481-37.241 1.896z"/><path d="M418.452 101.086a2.929 2.929 0 1 1-5.857 0 2.929 2.929 0 0 1 5.857 0zM438.143 100.05a2.93 2.93 0 1 1-5.858 0 2.93 2.93 0 0 1 5.858 0z"/><path fill="#D1A0B8" d="m489.386 133.749-24.491 34.923-.687-17.115 21.199-21.317 3.979 3.509z"/></g><g display="block"><path fill="#8A6651" d="m419.284 159.495-4.791-12.524-1.924-3.576-6.753 11.56 13.468 4.54z"/><path fill="#C3977A" d="m419.284 159.495-12.403-8.798-2.129 18.778 4.583 3.768 9.949-13.748z"/><path fill="#E8C9B6" d="m404.752 169.474-6.209-18.45 10.804-14.408 5.146 10.355-9.741 22.503z"/></g><g display="block"><path fill="#8F8F8F" d="m761.492 282.482 12.13 18.716 27.254-7.717-29.804-14.503-4.524-1.73-5.056 5.234z"/><path fill="#4F5252" d="m761.759 301.997 10.644 7.983 3.193-5.455-1.974-5.455-12.13-16.588-2.13 10.999 2.397 8.516z"/><path fill="#6E7073" d="m773.622 299.07 27.254-5.588v8.515l-28.474 7.983 1.22-10.91z"/><path fill="#8F8F8F" d="m751.735 279.466-20.047 19.605 15.909 4.523 14.161-1.597-.266-19.514-5.173-3.505-4.584.488z"/><path fill="#6E7073" d="M731.688 299.07v7.451l28.474 3.459 1.596-7.983-30.07-2.927z"/><path fill="#D1A0B8" d="M765.04 230.68v22l-3.548 29.802-9.757-3.016-2.135-12.499 1.248-4.396-3.25-7.32-1.524-8.919-.282-7.558 19.248-8.094z"/><path fill="#B3879D" d="m765.04 230.68-3.548 51.802 9.58-3.504 2.874-11.964-.324-4.443 2.962-6.54 2.845-11.842 1.489-13.509H765.04z"/><path fill="#95627B" d="m744.461 236.889 20.578-6.209 1.508 8.094-2.616 8.094-17.858-.536-1.612-9.443zM747.597 255.25l15.619 2.049 1.823 5.579-2.685 7.012-12.755-2.924-2.002-11.716z"/><path fill="#734D5F" d="m765.04 230.679 18.272-2.66-3.883 16.169-15.497 2.679 1.108-16.188zM763.217 257.299l13.367-1.269-2.638 10.983-11.592 2.877.863-12.591z"/><path fill="#2B2B2B" d="m746.074 246.332 30.51 9.699 6.729-28.012-38.852 6.52 1.613 11.793z" opacity=".2"/></g><g display="block"><path fill="#D1A0B8" d="m723.173 113.832-28.664-7.206-12.316-1.172-15.257-5.759-26.179 20.79-6.464 8.896-8.87 3.282-26.004-3.668-19.59-.856-1.064 11.886 19.305 5.942 33.74 5.836 9.934-11.778 9.259-5.321 18.649-16.614 11.072-.418 9.422 6.561 26.64 7.987 6.387-18.388z"/><path fill="#95627B" d="m690.146 124.233 4.366-17.605-27.576-6.933 2.716 18.394 20.494 6.144zM651.003 134.703l-10.245-14.219-15.335 12.179 6.387 19.141 19.193-17.101zM598.071 145.967l1.349-16.973-23.671-3.339-4.967 9.226 3.193 6.919 24.096 4.167z"/><path fill="#734D5F" d="m575.75 125.656-16.145-3.313-1.641 16.175 6.786 5.943 9.227-2.661 1.773-16.144z"/><path fill="#95627B" d="m575.749 125.655-6.031-10.619-10.113 7.307 5.499 8.989 10.645-5.677z"/><path fill="#B3879D" d="M552.509 122.343h14.016l-1.42 8.99h-12.596v-8.99zM552.51 137.364l12.95-1.22-.71 8.316-12.24.178v-7.274z"/><path fill="#785D87" d="m559.606 122.342-12.242.652v-6.74h12.242v6.088zM546.123 131.01l13.128.322-.267 5.423-12.861 1.497v-7.242z"/><path fill="#584164" d="m512.682 110.419 19.958-7.294 17.206 8.198-20.044 7.366-17.12-8.27z"/><path fill="#95627B" d="m518.304 113.135 13.804-3.446 10.912 4.143-13.218 4.857-11.498-5.554z"/><path fill="#785D87" d="m549.847 111.324-2.305 33.314-18.095 6.06-1.952-19.365 2.308-13.708 20.044-6.301z"/><path fill="#90759F" d="m512.682 110.419 17.12 7.205-.356 33.073-21.112-8.937 4.348-31.341z"/></g><g display="block"><path fill="#D1A0B8" d="m831.212 128.259 13.804 13.503 4.353 6.364 13.777 11.37-13.053 19.634-18.171 25.205-9.225-16.444 9.575-16.819 6.037-9.227-3.246-5.257-5.8-3.544-12.693-12.349 14.642-12.436z"/><path fill="#95627B" d="m809.924 107.226 21.288 21.033-22.352 22.233 1.064-43.266z"/><path fill="#734D5F" d="m831.922 206.464-27.374-7.362 16.02-10.148 8.696 8.756 2.658 8.754z"/><path fill="#95627B" d="m829.264 153.045 15.75-11.285 18.132 17.735-24.837 2.351-9.045-8.801zM832.272 171.07l17.821 8.059-18.172 27.335-11.352-17.509 11.703-17.885z"/></g><g display="block"><path fill="#95627B" d="m723.173 113.832-14.726 28.5 18.584 11.886-3.858-40.386z"/><path fill="#EBEBEB" d="m723.173 113.832 20.357-16.164 45.104-2.881 21.289 12.44-43.642 8.228-43.108-1.623z"/><path fill="#858585" d="m795.554 209.657-1.064 20.49-64.398 14.636 7.451-30.869 58.011-4.257z"/><path fill="#2B2B2B" d="m737.544 213.914 56.945 16.233 1.065-20.49-58.01 4.257z" opacity=".2"/><path fill="#A2A2A2" d="m723.173 113.832 86.75-6.605v107.486l-72.38-.798L724.236 201l-1.063-87.168z"/><path fill="#A687B9" d="m737.188 128.259 57.125-4.026 1.063 64.722-57.125 1.276-1.063-61.972z"/><path fill="#FFF" d="m742.332 133.993 10.29-.532.178 4.08-10.468.534v-4.082zM742.332 140.557l10.29-.532.178 4.08-10.468.534v-4.082zM742.332 147.653l10.29-.532.178 4.08-10.468.534v-4.082zM742.332 154.749l10.29-.532.178 4.08-10.468.532v-4.08zM768.057 131.864l20.934-1.418v3.192l-21.112 1.242.178-3.016z"/></g><g display="block"><path fill="#785D87" d="m785.043 151.802-11.975-1.134v14.809l10.246 1.513 3.192-3.903-9.922-.586v-7.264h8.459v-3.435z"/><path fill="#6E7073" d="m724.041 184.904 62.599-19.426 56.073 24.752-58.335 17.564-60.337-22.89z"/><path fill="#584164" d="m781.317 141.799 19.159-7.096 17.229 7.096-18.959 7.096-17.429-7.096z"/><path fill="#2B2B2B" d="m743.635 178.824-2.367 6.085 18.36 6.386 13.994-1.064 30.926 8.87 20.336-16.74-26.573-11.731-23.38 1.548-31.296 6.646z" opacity=".2"/><path fill="#95627B" d="m789.596 145.17 10.18-3.371 9.084 3.371-10.115 3.725-9.149-3.725z"/><path fill="#785D87" d="m817.705 141.799-5.933 19.17 3.075 7.973 5.189 5.322-6.14 12.372-15.15 6.305-16.364-7.37-4.734-10.885 8.992-12.84-5.323-20.047 17.429 6.031 18.959-6.031z"/><path fill="#90759F" d="m798.746 147.829 2.13 17.649-2.566 17.907.436 9.554-17.429-6.304-4.733-11.95 10.056-12.839-5.323-20.047 17.429 6.03z"/><path fill="#90759F" d="m811.772 160.968-10.896 4.509-2.034 8.829-.532 9.08 21.726-9.122-8.264-13.296z"/><path fill="#A687B9" d="m800.876 165.478-14.236-3.632-10.056 12.84 21.727 8.7 2.565-17.908z"/><path fill="#734D5F" d="m741.268 173.242 17.297-5.873 16.365 4.809-16.896 7.807-16.766-6.743z"/><path fill="#EBEBEB" d="m748.375 176.1 5.134-3.483 2.928 1.742 2.661-2.845 2.572 1.862 5.233-.759 2.862 1.947-11.732 5.422-9.658-3.886z"/><path fill="#C4C4C4" d="m753.968 178.35 2.469-3.992 3.281 1.392 1.952-2.373 3.618 3.256-7.255 3.352-4.065-1.635z"/><path fill="#D1A0B8" d="m741.268 173.242 3.593 8.473 13.239 5.589 1.528-4.658-1.594-3.725-16.766-5.679z"/><path fill="#95627B" d="m774.931 172.177-3.062 9.005-13.77 6.121-.066-8.383 16.898-6.743z"/></g><g display="block"><path fill="#95627B" d="m725.967 66.889-5.189-2.794-1.863 5.588 2.794 4.524 4.657-3.725.665-1.464-1.064-2.129z"/><path fill="#B3879D" d="m720.778 64.096.931 10.112-4.922-4.524 3.991-5.588z"/><path fill="#785D87" d="m734.083 66.224-8.116.665.399 3.593 7.717-.666v-3.592z"/><path fill="#90759F" d="m742.332 60.237-10.91 1.331.931 13.305 10.645-.266-.666-14.37z"/><path fill="#95627B" d="m804.548 62.901 4.988-3.138 2.237 5.45-2.484 4.702-4.897-3.403-.763-1.415.919-2.196z"/><path fill="#B3879D" d="m809.536 59.763-.246 10.152 4.606-4.846-4.36-5.306z"/><path fill="#785D87" d="m796.406 62.784 8.142.117-.157 3.611-7.744-.143-.241-3.585z"/><path fill="#90759F" d="m787.77 57.368 10.976.591-.032 13.338-10.637.453-.307-14.382z"/><path fill="#95627B" d="m739.672 45.574 25.368-22.813v26.236h-11.296l-14.072-3.423z"/><path fill="#734D5F" d="m765.04 22.76 23.595 17.031-13.09 6.142-12.722 1.771 2.217-24.944z"/><path fill="#9DA0A1" d="m739.672 45.574 3.858 52.094 21.51 6.642 1.242-32.259-3.459-24.347-23.151-2.13z"/><path fill="#858585" d="m765.04 104.309 23.595-9.522V39.791l-25.812 7.912 2.217 56.606z"/><path fill="#95627B" d="M758.21 62.765a3.992 3.992 0 1 1-7.985 0 3.992 3.992 0 0 1 7.985 0z"/><path fill="#FFF" d="M756.081 62.765a1.863 1.863 0 1 1-3.725 0 1.863 1.863 0 0 1 3.725 0z"/><path fill="#95627B" d="M784.083 62.218a8.769 8.769 0 1 1-17.537-.001 8.769 8.769 0 0 1 17.537.001z"/><path fill="#FFF" d="M779.558 62.218a4.243 4.243 0 1 1-8.486 0 4.243 4.243 0 0 1 8.486 0z"/><path fill="#734D5F" d="m748.586 82.723 15.743 3.463 16.987-5.326v5.322L764.537 91.5l-15.951-3.854v-4.923z"/><path fill="#FFF" d="m812.763 56.822 9.935 8.515-8.871 9.935 1.774 3.193 10.644-13.66-10.466-12.064-3.016 4.081z"/><path fill="#FFF" d="m818.794 48.838 14.014 14.371-10.998 15.434 2.128 2.306 14.192-18.805-16.143-17.741-3.193 4.435zM718.858 60.651l-9.113 9.391 9.744 9.079-1.476 3.342-11.85-12.626 9.318-12.972 3.377 3.786z"/><path fill="#FFF" d="m712.12 53.254-12.64 15.594 12.367 14.362-1.909 2.492-15.856-17.426 14.45-19.146 3.588 4.124z"/></g></g></svg>